Ref_01_analogdata.mot
version=1
nRows=66
nColumns=19
inDegrees=yes
endheader
time	1_ground_force_vx	1_ground_force_vy	1_ground_force_vz	1_ground_force_px	1_ground_force_py	1_ground_force_pz	1_ground_torque_x	1_ground_torque_y	1_ground_torque_z	2_ground_force_vx	2_ground_force_vy	2_ground_force_vz	2_ground_force_px	2_ground_force_py	2_ground_force_pz	2_ground_torque_x	2_ground_torque_y	2_ground_torque_z
0.000000	0.118127	629.693298	-1.005277	-0.201541	0.000000	-0.349851	-0.000018	-0.095647	0.000153	0.000000	0.000000	-0.000000	-0.200000	0.000000	0.302000	0.000000	0.000000	-0.000000
0.001000	1.454414	628.643555	-0.562931	-0.201544	0.000000	-0.350227	-0.000413	-0.178593	0.000160	0.000000	0.000000	-0.000000	-0.200000	0.000000	0.302000	0.000000	0.000000	-0.000000
0.002000	-0.060045	625.494263	0.056354	-0.202136	0.000000	-0.349085	0.000003	-0.031440	-0.000003	0.000000	0.000000	-0.000000	-0.200000	0.000000	0.302000	0.000000	0.000000	-0.000000
0.003000	0.207213	622.694885	-0.739869	-0.201265	0.000000	-0.352106	-0.000080	-0.240779	0.000286	0.000000	0.000000	-0.000000	-0.200000	0.000000	0.302000	0.000000	0.000000	-0.000000
0.004000	0.296299	626.194092	0.144823	-0.201433	0.000000	-0.350789	-0.000219	-0.461811	-0.000107	0.000000	0.000000	-0.000000	-0.200000	0.000000	0.302000	0.000000	0.000000	-0.000000
0.005000	-0.416388	630.043274	-0.916808	-0.201250	0.000000	-0.350333	0.000057	-0.085541	0.000124	0.000000	0.000000	-0.000000	-0.200000	0.000000	0.302000	0.000000	0.000000	-0.000000
0.006000	1.008985	629.343384	-0.562931	-0.202064	0.000000	-0.350243	0.000038	0.023484	-0.000021	0.000000	0.000000	-0.000000	-0.200000	0.000000	0.302000	0.000000	0.000000	-0.000000
0.007000	0.741728	629.693298	0.321762	-0.201599	0.000000	-0.350580	-0.000034	-0.028727	-0.000015	0.000000	0.000000	-0.000000	-0.200000	0.000000	0.302000	0.000000	0.000000	-0.000000
0.008000	0.563556	626.893921	-0.916808	-0.203063	0.000000	-0.351025	0.000171	0.189975	-0.000278	0.000000	0.000000	-0.000000	-0.200000	0.000000	0.302000	0.000000	0.000000	-0.000000
0.009000	0.296299	627.943726	-1.005277	-0.202069	0.000000	-0.351232	-0.000058	-0.123182	0.000197	0.000000	0.000000	-0.000000	-0.200000	0.000000	0.302000	0.000000	0.000000	-0.000000
0.010000	-0.149130	626.544006	-0.828339	-0.201841	0.000000	-0.350907	0.000030	-0.127831	0.000169	0.000000	0.000000	-0.000000	-0.200000	0.000000	0.302000	0.000000	0.000000	-0.000000
0.011000	-1.930846	630.743103	-1.270685	-0.201655	0.000000	-0.350203	0.001063	-0.347342	0.000700	0.000000	0.000000	-0.000000	-0.200000	0.000000	0.302000	0.000000	0.000000	-0.000000
0.012000	1.899843	627.943726	-0.562931	-0.202127	0.000000	-0.350573	0.000548	0.180977	-0.000162	0.000000	0.000000	-0.000000	-0.200000	0.000000	0.302000	0.000000	0.000000	-0.000000
0.013000	0.385384	623.394714	-0.651400	-0.201440	0.000000	-0.351680	-0.000062	-0.100910	0.000105	0.000000	0.000000	-0.000000	-0.200000	0.000000	0.302000	0.000000	0.000000	-0.000000
0.014000	-0.060045	631.792847	-0.120585	-0.201189	0.000000	-0.350194	-0.000004	0.043471	-0.000008	0.000000	0.000000	-0.000000	-0.200000	0.000000	0.302000	0.000000	0.000000	-0.000000
0.015000	0.118127	631.442932	-1.624562	-0.201420	0.000000	-0.350003	0.000042	0.222660	-0.000573	0.000000	0.000000	-0.000000	-0.200000	0.000000	0.302000	0.000000	0.000000	-0.000000
0.016000	0.563556	630.043274	-1.005277	-0.201598	0.000000	-0.350333	-0.000015	-0.017078	0.000027	0.000000	0.000000	-0.000000	-0.200000	0.000000	0.302000	0.000000	0.000000	-0.000000
0.017000	1.098071	631.442932	-2.951600	-0.201826	0.000000	-0.349640	-0.000043	-0.024508	0.000115	0.000000	0.000000	-0.000000	-0.200000	0.000000	0.302000	0.000000	0.000000	-0.000000
0.018000	1.810757	626.893921	-0.562931	-0.201956	0.000000	-0.350439	0.000293	0.101418	-0.000091	0.000000	0.000000	-0.000000	-0.200000	0.000000	0.302000	0.000000	0.000000	-0.000000
0.019000	1.187157	628.643555	-0.739869	-0.200904	0.000000	-0.351321	-0.000219	-0.116203	0.000137	0.000000	0.000000	-0.000000	-0.200000	0.000000	0.302000	0.000000	0.000000	-0.000000
0.020000	0.207213	625.494263	-0.739869	-0.201435	0.000000	-0.349892	-0.000074	-0.222434	0.000263	0.000000	0.000000	-0.000000	-0.200000	0.000000	0.302000	0.000000	0.000000	-0.000000
0.021000	0.296299	631.442932	-1.093746	-0.201479	0.000000	-0.349567	-0.000093	-0.198851	0.000344	0.000000	0.000000	-0.000000	-0.200000	0.000000	0.302000	0.000000	0.000000	-0.000000
0.022000	0.830813	630.043274	-0.474461	-0.201598	0.000000	-0.349823	-0.000130	-0.098290	0.000074	0.000000	0.000000	-0.000000	-0.200000	0.000000	0.302000	0.000000	0.000000	-0.000000
0.023000	0.741728	640.540894	-0.474461	-0.202085	0.000000	-0.348433	0.000010	0.008542	-0.000006	0.000000	0.000000	-0.000000	-0.200000	0.000000	0.302000	0.000000	0.000000	-0.000000
0.024000	0.385384	632.142761	-0.385992	-0.201188	0.000000	-0.350238	-0.000039	-0.064588	0.000039	0.000000	0.000000	-0.000000	-0.200000	0.000000	0.302000	0.000000	0.000000	-0.000000
0.025000	1.454414	629.693298	-0.562931	-0.200497	0.000000	-0.350290	-0.001320	-0.571335	0.000511	0.000000	0.000000	-0.000000	-0.200000	0.000000	0.302000	0.000000	0.000000	-0.000000
0.026000	0.118127	630.043274	-0.916808	-0.201599	0.000000	-0.350697	-0.000039	-0.207701	0.000302	0.000000	0.000000	-0.000000	-0.200000	0.000000	0.302000	0.000000	0.000000	-0.000000
0.027000	0.118127	632.142761	-0.651400	-0.201940	0.000000	-0.349077	-0.000021	-0.114703	0.000118	0.000000	0.000000	-0.000000	-0.200000	0.000000	0.302000	0.000000	0.000000	-0.000000
0.028000	1.543500	628.993469	-0.474461	-0.201601	0.000000	-0.349688	-0.000155	-0.062990	0.000048	0.000000	0.000000	-0.000000	-0.200000	0.000000	0.302000	0.000000	0.000000	-0.000000
0.029000	-0.238216	628.643555	-0.474462	-0.202183	0.000000	-0.348474	0.000022	-0.057562	0.000043	0.000000	0.000000	-0.000000	-0.200000	0.000000	0.302000	0.000000	0.000000	-0.000000
0.030000	-0.505474	629.693298	-1.005277	-0.201483	0.000000	-0.349267	0.000102	-0.126498	0.000202	0.000000	0.000000	-0.000000	-0.200000	0.000000	0.302000	0.000000	0.000000	-0.000000
0.031000	0.118127	628.643555	-0.120585	-0.201951	0.000000	-0.349934	-0.000071	-0.377127	0.000072	0.000000	0.000000	-0.000000	-0.200000	0.000000	0.302000	0.000000	0.000000	-0.000000
0.032000	-0.683645	628.643555	-1.093746	-0.201486	0.000000	-0.349934	0.000208	-0.191632	0.000333	0.000000	0.000000	-0.000000	-0.200000	0.000000	0.302000	0.000000	0.000000	-0.000000
0.033000	0.563556	628.993469	-0.562931	-0.202356	0.000000	-0.349687	-0.000049	-0.055079	0.000049	0.000000	0.000000	-0.000000	-0.200000	0.000000	0.302000	0.000000	0.000000	-0.000000
0.034000	0.385384	624.444458	0.764108	-0.201905	0.000000	-0.350637	-0.000076	-0.122383	-0.000150	0.000000	0.000000	-0.000000	-0.200000	0.000000	0.302000	0.000000	0.000000	-0.000000
0.035000	0.385385	626.194092	-1.447623	-0.203242	0.000000	-0.350789	0.000043	0.070607	-0.000163	0.000000	0.000000	-0.000000	-0.200000	0.000000	0.302000	0.000000	0.000000	-0.000000
0.036000	-0.416388	628.993469	-0.739869	-0.202473	0.000000	-0.350490	0.000155	-0.234349	0.000276	0.000000	0.000000	-0.000000	-0.200000	0.000000	0.302000	0.000000	0.000000	-0.000000
0.037000	-0.060045	625.844177	-0.651400	-0.202076	0.000000	-0.350011	0.000012	-0.123414	0.000128	0.000000	0.000000	-0.000000	-0.200000	0.000000	0.302000	0.000000	0.000000	-0.000000
0.038000	-2.287190	629.343384	-1.801500	-0.202241	0.000000	-0.349657	0.001587	-0.436764	0.001250	0.000000	0.000000	-0.000000	-0.200000	0.000000	0.302000	0.000000	0.000000	-0.000000
0.039000	0.741728	627.943726	-0.474461	-0.202127	0.000000	-0.350282	0.000012	0.009933	-0.000008	0.000000	0.000000	-0.000000	-0.200000	0.000000	0.302000	0.000000	0.000000	-0.000000
0.040000	0.207213	623.044800	-0.916808	-0.201792	0.000000	-0.351930	-0.000030	-0.090682	0.000133	0.000000	0.000000	-0.000000	-0.200000	0.000000	0.302000	0.000000	0.000000	-0.000000
0.041000	0.563556	632.142761	-0.562931	-0.201708	0.000000	-0.350456	0.000001	0.001024	-0.000001	0.000000	0.000000	-0.000000	-0.200000	0.000000	0.302000	0.000000	0.000000	-0.000000
0.042000	-0.238216	630.393188	-1.713031	-0.201887	0.000000	-0.350159	-0.000014	0.037625	-0.000102	0.000000	0.000000	-0.000000	-0.200000	0.000000	0.302000	0.000000	0.000000	-0.000000
0.043000	0.207213	628.993469	-1.359154	-0.202066	0.000000	-0.350490	-0.000011	-0.033781	0.000073	0.000000	0.000000	-0.000000	-0.200000	0.000000	0.302000	0.000000	0.000000	-0.000000
0.044000	0.385385	631.792847	-3.128538	-0.202115	0.000000	-0.350048	-0.000013	-0.021147	0.000105	0.000000	0.000000	-0.000000	-0.200000	0.000000	0.302000	0.000000	0.000000	-0.000000
0.045000	0.474470	627.593811	-1.624561	-0.202419	0.000000	-0.350383	0.000098	0.130211	-0.000337	0.000000	0.000000	-0.000000	-0.200000	0.000000	0.302000	0.000000	0.000000	-0.000000
0.046000	0.296299	628.993469	-1.359154	-0.200265	0.000000	-0.351001	-0.000094	-0.199684	0.000431	0.000000	0.000000	-0.000000	-0.200000	0.000000	0.302000	0.000000	0.000000	-0.000000
0.047000	-0.238216	624.094543	-1.359154	-0.201731	0.000000	-0.350151	0.000093	-0.243428	0.000530	0.000000	0.000000	-0.000000	-0.200000	0.000000	0.302000	0.000000	0.000000	-0.000000
0.048000	0.029041	630.043274	-1.624562	-0.202005	0.000000	-0.349896	-0.000006	-0.135736	0.000350	0.000000	0.000000	-0.000000	-0.200000	0.000000	0.302000	0.000000	0.000000	-0.000000
0.049000	0.741728	626.893921	-1.093746	-0.201781	0.000000	-0.350073	-0.000032	-0.026640	0.000046	0.000000	0.000000	-0.000000	-0.200000	0.000000	0.302000	0.000000	0.000000	-0.000000
0.050000	0.652642	636.341858	-0.385992	-0.202214	0.000000	-0.348609	-0.000015	-0.014472	0.000009	0.000000	0.000000	-0.000000	-0.200000	0.000000	0.302000	0.000000	0.000000	-0.000000
0.051000	0.118127	630.043274	-0.297523	-0.201714	0.000000	-0.350187	-0.000004	-0.021934	0.000010	0.000000	0.000000	-0.000000	-0.200000	0.000000	0.302000	0.000000	0.000000	-0.000000
0.052000	0.919899	629.343384	-1.093746	-0.201427	0.000000	-0.350171	-0.000791	-0.541009	0.000940	0.000000	0.000000	-0.000000	-0.200000	0.000000	0.302000	0.000000	0.000000	-0.000000
0.053000	-0.060044	626.893921	-1.359154	-0.202598	0.000000	-0.350366	0.000024	-0.252005	0.000546	0.000000	0.000000	-0.000000	-0.200000	0.000000	0.302000	0.000000	0.000000	-0.000000
0.054000	0.385384	628.293640	-0.828338	-0.202010	0.000000	-0.349012	-0.000096	-0.157245	0.000207	0.000000	0.000000	-0.000000	-0.200000	0.000000	0.302000	0.000000	0.000000	-0.000000
0.055000	1.543500	625.844177	-1.005277	-0.202193	0.000000	-0.350084	-0.000104	-0.042255	0.000068	0.000000	0.000000	-0.000000	-0.200000	0.000000	0.302000	0.000000	0.000000	-0.000000
0.056000	-0.327302	624.794434	-0.739869	-0.202899	0.000000	-0.348626	0.000032	-0.060821	0.000072	0.000000	0.000000	-0.000000	-0.200000	0.000000	0.302000	0.000000	0.000000	-0.000000
0.057000	0.207213	621.645081	-0.828338	-0.202090	0.000000	-0.350275	-0.000061	-0.184328	0.000246	0.000000	0.000000	-0.000000	-0.200000	0.000000	0.302000	0.000000	0.000000	-0.000000
0.058000	0.296299	625.144348	-0.032115	-0.202078	0.000000	-0.350214	-0.000175	-0.368316	0.000019	0.000000	0.000000	-0.000000	-0.200000	0.000000	0.302000	0.000000	0.000000	-0.000000
0.059000	-0.416388	629.343384	-1.270685	-0.201948	0.000000	-0.350170	0.000019	-0.028108	0.000057	0.000000	0.000000	-0.000000	-0.200000	0.000000	0.302000	0.000000	0.000000	-0.000000
0.060000	0.563556	627.243835	-1.270685	-0.202712	0.000000	-0.349972	-0.000031	-0.034120	0.000069	0.000000	0.000000	-0.000000	-0.200000	0.000000	0.302000	0.000000	0.000000	-0.000000
0.061000	0.741727	627.593811	0.675638	-0.202594	0.000000	-0.350456	-0.000080	-0.067414	-0.000073	0.000000	0.000000	-0.000000	-0.200000	0.000000	0.302000	0.000000	0.000000	-0.000000
0.062000	1.008985	624.794434	-1.005277	-0.203892	0.000000	-0.350976	0.000315	0.195079	-0.000314	0.000000	0.000000	-0.000000	-0.200000	0.000000	0.302000	0.000000	0.000000	-0.000000
0.063000	-0.060044	625.844177	-1.447623	-0.202369	0.000000	-0.350891	0.000013	-0.140069	0.000324	0.000000	0.000000	-0.000000	-0.200000	0.000000	0.302000	0.000000	0.000000	-0.000000
0.064000	0.118127	621.295166	-1.182215	-0.202386	0.000000	-0.350820	-0.000021	-0.112940	0.000215	0.000000	0.000000	-0.000000	-0.200000	0.000000	0.302000	0.000000	0.000000	-0.000000
0.065000	-1.574503	627.943726	-1.978439	-0.202303	0.000000	-0.349769	0.000771	-0.307638	0.000969	0.000000	0.000000	-0.000000	-0.200000	0.000000	0.302000	0.000000	0.000000	-0.000000
